<?xml version="1.0" encoding="iso-8859-1"?>
<!-- Generator: Adobe Illustrator 18.0.0, SVG Export Plug-In . SVG Version: 6.00 Build 0)  -->
<!DOCTYPE svg PUBLIC "-//W3C//DTD SVG 1.1//EN" "http://www.w3.org/Graphics/SVG/1.1/DTD/svg11.dtd">
<svg version="1.1" id="_x31_" xmlns="http://www.w3.org/2000/svg" xmlns:xlink="http://www.w3.org/1999/xlink" x="0px" y="0px"
	 viewBox="0 0 512 512" style="enable-background:new 0 0 512 512;" xml:space="preserve">
<g>
	<rect style="fill:#489F92;" width="512" height="512"/>
	<polygon style="opacity:0.1;fill:#040000;" points="423.577,202.547 403.771,222.353 327.457,146.039 262.29,211.206 
		338.604,287.52 308.278,317.847 225.35,234.919 199.29,260.98 131.415,193.106 81.389,243.132 106.345,268.087 68.407,306.026 
		135.808,373.427 118.733,390.503 240.23,512 249.293,512 340.275,512 512,512 512,290.97 	"/>
	<g>
		<g>
			<g>
				<circle style="fill:#FFFFFF;" cx="255.748" cy="226.87" r="109.944"/>
				<path style="fill:#D1E9D9;" d="M257.258,181.77H195.87c-4.981,0-9.057-4.076-9.057-9.057l0,0c0-4.981,4.076-9.057,9.057-9.057
					h61.388c4.981,0,9.057,4.076,9.057,9.057l0,0C266.315,177.694,262.239,181.77,257.258,181.77z"/>
				<path style="fill:#D1E9D9;" d="M246.691,220.263h-61.388c-4.981,0-9.057-4.076-9.057-9.057l0,0c0-4.982,4.076-9.057,9.057-9.057
					h61.388c4.982,0,9.057,4.076,9.057,9.057l0,0C255.748,216.187,251.673,220.263,246.691,220.263z"/>
				<path style="fill:#D1E9D9;" d="M334.244,261.775H185.303c-4.981,0-9.057-4.076-9.057-9.057v0c0-4.981,4.076-9.057,9.057-9.057
					h148.941c4.981,0,9.057,4.076,9.057,9.057v0C343.301,257.699,339.226,261.775,334.244,261.775z"/>
				<path style="fill:#D1E9D9;" d="M268.202,291.211h-71.2c-4.981,0-9.057-4.076-9.057-9.057l0,0c0-4.982,4.076-9.057,9.057-9.057
					h71.2c4.981,0,9.057,4.076,9.057,9.057l0,0C277.259,287.135,273.184,291.211,268.202,291.211z"/>
				<path style="fill:#D1E9D9;" d="M332.735,220.263h-61.388c-4.981,0-9.057-4.076-9.057-9.057l0,0c0-4.982,4.076-9.057,9.057-9.057
					h61.388c4.981,0,9.057,4.076,9.057,9.057l0,0C341.792,216.187,337.716,220.263,332.735,220.263z"/>
				<polygon style="fill:#FFFFFF;" points="217.628,323.986 277.327,314.929 279.102,371.915 				"/>
			</g>
			<path style="fill:#D1E9D9;" d="M199.146,340.158c-11.533,11.533-26.19,19.956-42.614,23.866l-39.821,31.051l0.951-30.417
				c-40.803-8.363-71.491-44.471-71.491-87.734c0-49.467,40.108-89.576,89.576-89.576h0.045
				c-3.442,11.744-5.283,24.168-5.283,37.029C130.507,274.297,158.238,317.756,199.146,340.158z"/>
			<path style="fill:#D1E9D9;" d="M312.854,340.158c11.533,11.533,26.19,19.956,42.614,23.866l39.822,31.051l-0.951-30.417
				c40.803-8.363,71.492-44.471,71.492-87.734c0-49.467-40.108-89.576-89.576-89.576h-0.045c3.442,11.744,5.283,24.168,5.283,37.029
				C381.493,274.297,353.762,317.756,312.854,340.158z"/>
		</g>
		<g style="opacity:0.04;">
			<path style="fill:#070405;" d="M365.693,226.87c0-22.851-6.979-44.067-18.911-61.651L194.217,317.783
				c10.756,7.276,22.821,12.765,35.83,15.887l49.054,38.246l-1.163-37.343C328.022,324.307,365.693,279.988,365.693,226.87z"/>
			<path style="fill:#070405;" d="M117.689,394.311l38.843-30.288c16.424-3.909,31.081-12.333,42.614-23.866
				c-5.795-3.173-11.29-6.812-16.514-10.789L117.689,394.311z"/>
			<path style="fill:#070405;" d="M465.83,276.923c0-49.467-40.108-89.576-89.576-89.576h-0.045
				c3.442,11.744,5.283,24.168,5.283,37.029c0,49.92-27.73,93.38-68.638,115.781c11.533,11.533,26.19,19.956,42.614,23.866
				l39.822,31.051l-0.951-30.417C435.142,356.295,465.83,320.187,465.83,276.923z"/>
		</g>
	</g>
</g>
</svg>
